<svg width="100" height="100" viewBox="0 0 100 100" fill="none" xmlns="http://www.w3.org/2000/svg">
<rect width="100" height="100" rx="15" fill="#023B54"/>
<path d="M24.1459 76.14C22.6199 76.14 21.0939 75.664 20.2819 74.964L20.9119 73.55C21.6959 74.18 22.9419 74.628 24.1459 74.628C25.6719 74.628 26.3159 74.082 26.3159 73.354C26.3159 71.24 20.4919 72.626 20.4919 68.986C20.4919 67.404 21.7519 66.06 24.4399 66.06C25.6159 66.06 26.8479 66.368 27.7019 66.928L27.1279 68.342C26.2459 67.824 25.2799 67.572 24.4259 67.572C22.9139 67.572 22.2979 68.16 22.2979 68.902C22.2979 70.988 28.1079 69.63 28.1079 73.228C28.1079 74.796 26.8339 76.14 24.1459 76.14ZM31.7326 74.474H37.2626V76H29.9126V66.2H37.0666V67.726H31.7326V70.274H36.4646V71.772H31.7326V74.474ZM46.6275 76L45.6475 73.732H40.7475L39.7815 76H37.9055L42.3155 66.2H44.1075L48.5315 76H46.6275ZM41.3635 72.304H45.0455L43.1975 68.02L41.3635 72.304ZM58.1498 76H56.1898L54.1878 73.13C54.0618 73.144 53.9358 73.144 53.8098 73.144H51.5978V76H49.7778V66.2H53.8098C56.3858 66.2 57.9818 67.516 57.9818 69.686C57.9818 71.17 57.2258 72.262 55.8958 72.78L58.1498 76ZM56.1478 69.686C56.1478 68.454 55.3218 67.74 53.7258 67.74H51.5978V71.646H53.7258C55.3218 71.646 56.1478 70.918 56.1478 69.686ZM64.5541 76.14C61.5581 76.14 59.3181 74.026 59.3181 71.1C59.3181 68.174 61.5581 66.06 64.5681 66.06C66.1641 66.06 67.5361 66.634 68.4461 67.698L67.2701 68.804C66.5561 68.034 65.6741 67.656 64.6521 67.656C62.6221 67.656 61.1521 69.084 61.1521 71.1C61.1521 73.116 62.6221 74.544 64.6521 74.544C65.6741 74.544 66.5561 74.166 67.2701 73.382L68.4461 74.502C67.5361 75.566 66.1641 76.14 64.5541 76.14ZM77.078 66.2H78.898V76H77.078V71.8H72.01V76H70.19V66.2H72.01V70.246H77.078V66.2Z" fill="#B7EFFF"/>
<path d="M54.9553 36.7827C50.2399 40.4294 43.9504 39.4292 40.4354 35.067C37.0739 30.8855 37.2006 24.5992 40.7622 20.5705C44.3772 16.4792 50.3532 15.8262 54.6752 19.0145C59.3373 22.4459 60.7579 29.6074 56.9629 34.7267C57.1563 34.9073 57.3631 35.0809 57.5498 35.2754C58.8838 36.6577 60.211 38.04 61.5316 39.4223C61.9385 39.846 62.1052 40.353 61.9318 40.9435C61.7717 41.4992 61.3982 41.8465 60.858 41.9645C60.3111 42.0896 59.8642 41.8742 59.4774 41.4714C58.0567 39.9849 56.6361 38.5054 55.2088 37.0258C55.1287 36.9494 55.0487 36.873 54.9553 36.7827ZM48.5458 36.0464C52.821 36.0534 56.2626 32.49 56.2826 28.0306C56.2959 23.5712 52.8544 19.9661 48.5658 19.9661C44.2905 19.9661 40.8556 23.5434 40.849 27.9959C40.8423 32.4483 44.2705 36.0325 48.5458 36.0464Z" fill="#B7EFFF"/>
</svg>
